<svg xmlns="http://www.w3.org/2000/svg" viewBox="0 0 240 240" fill="none">
  <rect width="240" height="240" fill="#ffffff"/>
  <rect x="8" y="8" width="224" height="224" rx="12" fill="#f8fafc" stroke="#e2e8f0" stroke-width="2"/>
  <!-- QR finder patterns -->
  <rect x="24" y="24" width="56" height="56" fill="#0f172a"/>
  <rect x="32" y="32" width="40" height="40" fill="#ffffff"/>
  <rect x="40" y="40" width="24" height="24" fill="#0f172a"/>
  <rect x="160" y="24" width="56" height="56" fill="#0f172a"/>
  <rect x="168" y="32" width="40" height="40" fill="#ffffff"/>
  <rect x="176" y="40" width="24" height="24" fill="#0f172a"/>
  <rect x="24" y="160" width="56" height="56" fill="#0f172a"/>
  <rect x="32" y="168" width="40" height="40" fill="#ffffff"/>
  <rect x="40" y="176" width="24" height="24" fill="#0f172a"/>
  <!-- Data modules -->
  <g fill="#0f172a">
    <rect x="96" y="24" width="8" height="8"/><rect x="112" y="24" width="8" height="8"/><rect x="128" y="24" width="8" height="8"/>
    <rect x="96" y="40" width="8" height="8"/><rect x="120" y="40" width="8" height="8"/><rect x="144" y="40" width="8" height="8"/>
    <rect x="104" y="56" width="8" height="8"/><rect x="136" y="56" width="8" height="8"/>
    <rect x="96" y="72" width="8" height="8"/><rect x="112" y="72" width="8" height="8"/><rect x="128" y="72" width="8" height="8"/><rect x="144" y="72" width="8" height="8"/>
    <rect x="24" y="96" width="8" height="8"/><rect x="40" y="96" width="8" height="8"/><rect x="56" y="96" width="8" height="8"/>
    <rect x="96" y="96" width="8" height="8"/><rect x="112" y="96" width="8" height="8"/><rect x="128" y="96" width="8" height="8"/>
    <rect x="152" y="96" width="8" height="8"/><rect x="168" y="96" width="8" height="8"/><rect x="184" y="96" width="8" height="8"/><rect x="200" y="96" width="8" height="8"/>
    <rect x="96" y="112" width="8" height="8"/><rect x="120" y="112" width="8" height="8"/><rect x="144" y="112" width="8" height="8"/><rect x="168" y="112" width="8" height="8"/>
    <rect x="104" y="128" width="8" height="8"/><rect x="128" y="128" width="8" height="8"/><rect x="152" y="128" width="8" height="8"/><rect x="176" y="128" width="8" height="8"/><rect x="200" y="128" width="8" height="8"/>
    <rect x="96" y="144" width="8" height="8"/><rect x="112" y="144" width="8" height="8"/><rect x="136" y="144" width="8" height="8"/><rect x="160" y="144" width="8" height="8"/><rect x="184" y="144" width="8" height="8"/>
    <rect x="96" y="160" width="8" height="8"/><rect x="120" y="160" width="8" height="8"/><rect x="144" y="160" width="8" height="8"/><rect x="168" y="160" width="8" height="8"/><rect x="192" y="160" width="8" height="8"/>
    <rect x="104" y="176" width="8" height="8"/><rect x="128" y="176" width="8" height="8"/><rect x="152" y="176" width="8" height="8"/><rect x="176" y="176" width="8" height="8"/><rect x="200" y="176" width="8" height="8"/>
    <rect x="96" y="192" width="8" height="8"/><rect x="112" y="192" width="8" height="8"/><rect x="136" y="192" width="8" height="8"/><rect x="160" y="192" width="8" height="8"/><rect x="184" y="192" width="8" height="8"/><rect x="208" y="192" width="8" height="8"/>
    <rect x="96" y="208" width="8" height="8"/><rect x="120" y="208" width="8" height="8"/><rect x="144" y="208" width="8" height="8"/><rect x="168" y="208" width="8" height="8"/><rect x="192" y="208" width="8" height="8"/>
  </g>
  <rect x="88" y="88" width="64" height="64" rx="8" fill="#ffffff" fill-opacity="0.92"/>
  <text x="120" y="114" text-anchor="middle" font-family="sans-serif" font-size="11" font-weight="700" fill="#64748b">PromptPay</text>
  <text x="120" y="132" text-anchor="middle" font-family="sans-serif" font-size="10" fill="#94a3b8">1'-"H2 QR</text>
</svg>
